<?xml version="1.0" encoding="utf-8"?>
<!-- Svg Vector Icons : http://www.onlinewebfonts.com/icon -->
<!DOCTYPE svg PUBLIC "-//W3C//DTD SVG 1.1//EN" "http://www.w3.org/Graphics/SVG/1.1/DTD/svg11.dtd">
<svg version="1.1" xmlns="http://www.w3.org/2000/svg" xmlns:xlink="http://www.w3.org/1999/xlink" x="0px" y="0px" viewBox="0 0 1000 1000" enable-background="new 0 0 1000 1000" xml:space="preserve">
<metadata> Svg Vector Icons : http://www.onlinewebfonts.com/icon </metadata>
<g><path d="M850.1,909.4c0,21.3-17.6,38.9-38.9,38.9H577.8V598.3H422.2v350.1H188.8c-21.3,0-38.9-17.6-38.9-38.9V501c0-0.6,0.6-3,0.6-3.7L500,209.2l349.5,288.1c0.6,0.6,0.6,1.8,0.6,3.7V909.4z"/><path d="M985.7,459.1l-37.7,45c-3,3.6-7.3,6.1-12.8,6.7h-1.8c-5.5,0-9.7-1.2-12.8-4.3L500,155.8L79.4,506.5c-4.9,3-9.7,4.9-14.6,4.3c-5.5-0.6-9.7-3-12.8-6.7l-37.7-45c-6.7-7.9-5.5-20.7,2.4-27.3l437-364.1c26.1-21.3,66.3-21.3,92.4,0l148.3,124V73.1c0-11.5,7.9-19.5,19.4-19.5h116.7c11.6,0,19.4,7.9,19.4,19.5v248l133.1,110.6C991.1,438.4,992.3,451.2,985.7,459.1z"/></g>
</svg>